<mxfile host="Electron" modified="2023-12-06T05:48:34.693Z" agent="Mozilla/5.0 (Macintosh; Intel Mac OS X 10_15_7) AppleWebKit/537.36 (KHTML, like Gecko) draw.io/22.1.2 Chrome/114.0.5735.289 Electron/25.9.4 Safari/537.36" etag="KlutKv-DbD2FlfjN171L" version="22.1.2" type="device">
  <diagram name="第 1 页" id="KemlZvxES-pmjvx99MJy">
    <mxGraphModel dx="1026" dy="658" grid="1" gridSize="10" guides="1" tooltips="1" connect="1" arrows="1" fold="1" page="1" pageScale="1" pageWidth="827" pageHeight="1169" math="0" shadow="0">
      <root>
        <mxCell id="0" />
        <mxCell id="1" parent="0" />
        <mxCell id="MlOCYBxQjXrcOC7JeDMh-2" value="Front:&amp;nbsp;" style="text;html=1;strokeColor=none;fillColor=none;align=center;verticalAlign=middle;whiteSpace=wrap;rounded=0;fontSize=24;" parent="1" vertex="1">
          <mxGeometry x="50" y="105" width="60" height="30" as="geometry" />
        </mxCell>
        <mxCell id="MlOCYBxQjXrcOC7JeDMh-3" value="Back:" style="text;html=1;strokeColor=none;fillColor=none;align=center;verticalAlign=middle;whiteSpace=wrap;rounded=0;fontSize=24;" parent="1" vertex="1">
          <mxGeometry x="50" y="180" width="60" height="30" as="geometry" />
        </mxCell>
        <mxCell id="MlOCYBxQjXrcOC7JeDMh-5" value="" style="shape=flexArrow;endArrow=classic;html=1;rounded=0;" parent="1" edge="1">
          <mxGeometry width="50" height="50" relative="1" as="geometry">
            <mxPoint x="200" y="160" as="sourcePoint" />
            <mxPoint x="310" y="160" as="targetPoint" />
          </mxGeometry>
        </mxCell>
        <mxCell id="MlOCYBxQjXrcOC7JeDMh-7" value="Front:&amp;nbsp;" style="text;html=1;strokeColor=none;fillColor=none;align=center;verticalAlign=middle;whiteSpace=wrap;rounded=0;fontSize=24;" parent="1" vertex="1">
          <mxGeometry x="320" y="105" width="60" height="30" as="geometry" />
        </mxCell>
        <mxCell id="MlOCYBxQjXrcOC7JeDMh-8" value="Back:" style="text;html=1;strokeColor=none;fillColor=none;align=center;verticalAlign=middle;whiteSpace=wrap;rounded=0;fontSize=24;" parent="1" vertex="1">
          <mxGeometry x="320" y="180" width="60" height="30" as="geometry" />
        </mxCell>
        <mxCell id="MlOCYBxQjXrcOC7JeDMh-10" value="&lt;font style=&quot;font-size: 24px;&quot;&gt;push(1)&lt;/font&gt;" style="text;html=1;strokeColor=none;fillColor=none;align=center;verticalAlign=middle;whiteSpace=wrap;rounded=0;" parent="1" vertex="1">
          <mxGeometry x="210" y="110" width="90" height="30" as="geometry" />
        </mxCell>
        <mxCell id="MlOCYBxQjXrcOC7JeDMh-12" value="Ø" style="rounded=0;whiteSpace=wrap;html=1;fontSize=24;" parent="1" vertex="1">
          <mxGeometry x="710" y="90" width="60" height="60" as="geometry" />
        </mxCell>
        <mxCell id="MlOCYBxQjXrcOC7JeDMh-13" value="Front:&amp;nbsp;" style="text;html=1;strokeColor=none;fillColor=none;align=center;verticalAlign=middle;whiteSpace=wrap;rounded=0;fontSize=24;" parent="1" vertex="1">
          <mxGeometry x="580" y="105" width="60" height="30" as="geometry" />
        </mxCell>
        <mxCell id="MlOCYBxQjXrcOC7JeDMh-14" value="Back:" style="text;html=1;strokeColor=none;fillColor=none;align=center;verticalAlign=middle;whiteSpace=wrap;rounded=0;fontSize=24;" parent="1" vertex="1">
          <mxGeometry x="580" y="180" width="60" height="30" as="geometry" />
        </mxCell>
        <mxCell id="MlOCYBxQjXrcOC7JeDMh-15" value="Ø" style="rounded=0;whiteSpace=wrap;html=1;fontSize=24;" parent="1" vertex="1">
          <mxGeometry x="650" y="165" width="60" height="60" as="geometry" />
        </mxCell>
        <mxCell id="MlOCYBxQjXrcOC7JeDMh-17" value="" style="shape=flexArrow;endArrow=classic;html=1;rounded=0;strokeColor=#FF0000;strokeWidth=3;" parent="1" edge="1">
          <mxGeometry width="50" height="50" relative="1" as="geometry">
            <mxPoint x="520" y="160" as="sourcePoint" />
            <mxPoint x="570" y="160" as="targetPoint" />
          </mxGeometry>
        </mxCell>
        <mxCell id="MlOCYBxQjXrcOC7JeDMh-18" value="" style="shape=flexArrow;endArrow=classic;html=1;rounded=0;" parent="1" edge="1">
          <mxGeometry width="50" height="50" relative="1" as="geometry">
            <mxPoint x="780" y="164" as="sourcePoint" />
            <mxPoint x="890" y="164" as="targetPoint" />
          </mxGeometry>
        </mxCell>
        <mxCell id="MlOCYBxQjXrcOC7JeDMh-19" value="&lt;font style=&quot;font-size: 24px;&quot;&gt;push(2)&lt;/font&gt;" style="text;html=1;strokeColor=none;fillColor=none;align=center;verticalAlign=middle;whiteSpace=wrap;rounded=0;" parent="1" vertex="1">
          <mxGeometry x="790" y="114" width="90" height="30" as="geometry" />
        </mxCell>
        <mxCell id="MlOCYBxQjXrcOC7JeDMh-20" value="Ø" style="rounded=0;whiteSpace=wrap;html=1;fontSize=24;" parent="1" vertex="1">
          <mxGeometry x="1040" y="90" width="60" height="60" as="geometry" />
        </mxCell>
        <mxCell id="MlOCYBxQjXrcOC7JeDMh-21" value="Front:&amp;nbsp;" style="text;html=1;strokeColor=none;fillColor=none;align=center;verticalAlign=middle;whiteSpace=wrap;rounded=0;fontSize=24;" parent="1" vertex="1">
          <mxGeometry x="910" y="105" width="60" height="30" as="geometry" />
        </mxCell>
        <mxCell id="MlOCYBxQjXrcOC7JeDMh-22" value="Back:" style="text;html=1;strokeColor=none;fillColor=none;align=center;verticalAlign=middle;whiteSpace=wrap;rounded=0;fontSize=24;" parent="1" vertex="1">
          <mxGeometry x="910" y="180" width="60" height="30" as="geometry" />
        </mxCell>
        <mxCell id="MlOCYBxQjXrcOC7JeDMh-23" value="Ø" style="rounded=0;whiteSpace=wrap;html=1;fontSize=24;" parent="1" vertex="1">
          <mxGeometry x="1040" y="165" width="60" height="60" as="geometry" />
        </mxCell>
        <mxCell id="MlOCYBxQjXrcOC7JeDMh-24" value="1" style="rounded=0;whiteSpace=wrap;html=1;fontSize=24;" parent="1" vertex="1">
          <mxGeometry x="980" y="90" width="60" height="60" as="geometry" />
        </mxCell>
        <mxCell id="l5ovCsallBg2o7BBlaVo-15" value="" style="group" vertex="1" connectable="0" parent="1">
          <mxGeometry x="120" y="90" width="60" height="60" as="geometry" />
        </mxCell>
        <mxCell id="MlOCYBxQjXrcOC7JeDMh-1" value="" style="rounded=0;whiteSpace=wrap;html=1;fontSize=24;" parent="l5ovCsallBg2o7BBlaVo-15" vertex="1">
          <mxGeometry width="60" height="60" as="geometry" />
        </mxCell>
        <mxCell id="l5ovCsallBg2o7BBlaVo-14" value="" style="endArrow=none;html=1;rounded=0;entryX=1;entryY=0;entryDx=0;entryDy=0;exitX=0;exitY=1;exitDx=0;exitDy=0;" edge="1" parent="l5ovCsallBg2o7BBlaVo-15" source="MlOCYBxQjXrcOC7JeDMh-1" target="MlOCYBxQjXrcOC7JeDMh-1">
          <mxGeometry width="50" height="50" relative="1" as="geometry">
            <mxPoint y="60" as="sourcePoint" />
            <mxPoint x="50" y="10" as="targetPoint" />
          </mxGeometry>
        </mxCell>
        <mxCell id="l5ovCsallBg2o7BBlaVo-16" value="" style="group" vertex="1" connectable="0" parent="1">
          <mxGeometry x="120" y="165" width="60" height="60" as="geometry" />
        </mxCell>
        <mxCell id="l5ovCsallBg2o7BBlaVo-17" value="" style="rounded=0;whiteSpace=wrap;html=1;fontSize=24;" vertex="1" parent="l5ovCsallBg2o7BBlaVo-16">
          <mxGeometry width="60" height="60" as="geometry" />
        </mxCell>
        <mxCell id="l5ovCsallBg2o7BBlaVo-18" value="" style="endArrow=none;html=1;rounded=0;entryX=1;entryY=0;entryDx=0;entryDy=0;exitX=0;exitY=1;exitDx=0;exitDy=0;" edge="1" parent="l5ovCsallBg2o7BBlaVo-16" source="l5ovCsallBg2o7BBlaVo-17" target="l5ovCsallBg2o7BBlaVo-17">
          <mxGeometry width="50" height="50" relative="1" as="geometry">
            <mxPoint y="60" as="sourcePoint" />
            <mxPoint x="50" y="10" as="targetPoint" />
          </mxGeometry>
        </mxCell>
        <mxCell id="l5ovCsallBg2o7BBlaVo-19" value="" style="group" vertex="1" connectable="0" parent="1">
          <mxGeometry x="390" y="90" width="60" height="60" as="geometry" />
        </mxCell>
        <mxCell id="l5ovCsallBg2o7BBlaVo-20" value="" style="rounded=0;whiteSpace=wrap;html=1;fontSize=24;" vertex="1" parent="l5ovCsallBg2o7BBlaVo-19">
          <mxGeometry width="60" height="60" as="geometry" />
        </mxCell>
        <mxCell id="l5ovCsallBg2o7BBlaVo-21" value="" style="endArrow=none;html=1;rounded=0;entryX=1;entryY=0;entryDx=0;entryDy=0;exitX=0;exitY=1;exitDx=0;exitDy=0;" edge="1" parent="l5ovCsallBg2o7BBlaVo-19" source="l5ovCsallBg2o7BBlaVo-20" target="l5ovCsallBg2o7BBlaVo-20">
          <mxGeometry width="50" height="50" relative="1" as="geometry">
            <mxPoint y="60" as="sourcePoint" />
            <mxPoint x="50" y="10" as="targetPoint" />
          </mxGeometry>
        </mxCell>
        <mxCell id="l5ovCsallBg2o7BBlaVo-22" value="" style="group" vertex="1" connectable="0" parent="1">
          <mxGeometry x="450" y="165" width="60" height="60" as="geometry" />
        </mxCell>
        <mxCell id="l5ovCsallBg2o7BBlaVo-23" value="" style="rounded=0;whiteSpace=wrap;html=1;fontSize=24;" vertex="1" parent="l5ovCsallBg2o7BBlaVo-22">
          <mxGeometry width="60" height="60" as="geometry" />
        </mxCell>
        <mxCell id="l5ovCsallBg2o7BBlaVo-24" value="" style="endArrow=none;html=1;rounded=0;entryX=1;entryY=0;entryDx=0;entryDy=0;exitX=0;exitY=1;exitDx=0;exitDy=0;" edge="1" parent="l5ovCsallBg2o7BBlaVo-22" source="l5ovCsallBg2o7BBlaVo-23" target="l5ovCsallBg2o7BBlaVo-23">
          <mxGeometry width="50" height="50" relative="1" as="geometry">
            <mxPoint y="60" as="sourcePoint" />
            <mxPoint x="50" y="10" as="targetPoint" />
          </mxGeometry>
        </mxCell>
        <mxCell id="l5ovCsallBg2o7BBlaVo-25" value="" style="group" vertex="1" connectable="0" parent="1">
          <mxGeometry x="650" y="165" width="60" height="60" as="geometry" />
        </mxCell>
        <mxCell id="l5ovCsallBg2o7BBlaVo-26" value="" style="rounded=0;whiteSpace=wrap;html=1;fontSize=24;" vertex="1" parent="l5ovCsallBg2o7BBlaVo-25">
          <mxGeometry width="60" height="60" as="geometry" />
        </mxCell>
        <mxCell id="l5ovCsallBg2o7BBlaVo-27" value="" style="endArrow=none;html=1;rounded=0;entryX=1;entryY=0;entryDx=0;entryDy=0;exitX=0;exitY=1;exitDx=0;exitDy=0;" edge="1" parent="l5ovCsallBg2o7BBlaVo-25" source="l5ovCsallBg2o7BBlaVo-26" target="l5ovCsallBg2o7BBlaVo-26">
          <mxGeometry width="50" height="50" relative="1" as="geometry">
            <mxPoint y="60" as="sourcePoint" />
            <mxPoint x="50" y="10" as="targetPoint" />
          </mxGeometry>
        </mxCell>
        <mxCell id="l5ovCsallBg2o7BBlaVo-28" value="" style="group" vertex="1" connectable="0" parent="1">
          <mxGeometry x="710" y="90" width="60" height="60" as="geometry" />
        </mxCell>
        <mxCell id="l5ovCsallBg2o7BBlaVo-29" value="" style="rounded=0;whiteSpace=wrap;html=1;fontSize=24;" vertex="1" parent="l5ovCsallBg2o7BBlaVo-28">
          <mxGeometry width="60" height="60" as="geometry" />
        </mxCell>
        <mxCell id="l5ovCsallBg2o7BBlaVo-30" value="" style="endArrow=none;html=1;rounded=0;entryX=1;entryY=0;entryDx=0;entryDy=0;exitX=0;exitY=1;exitDx=0;exitDy=0;" edge="1" parent="l5ovCsallBg2o7BBlaVo-28" source="l5ovCsallBg2o7BBlaVo-29" target="l5ovCsallBg2o7BBlaVo-29">
          <mxGeometry width="50" height="50" relative="1" as="geometry">
            <mxPoint y="60" as="sourcePoint" />
            <mxPoint x="50" y="10" as="targetPoint" />
          </mxGeometry>
        </mxCell>
        <mxCell id="l5ovCsallBg2o7BBlaVo-31" value="" style="group" vertex="1" connectable="0" parent="1">
          <mxGeometry x="1040" y="165" width="60" height="60" as="geometry" />
        </mxCell>
        <mxCell id="l5ovCsallBg2o7BBlaVo-32" value="" style="rounded=0;whiteSpace=wrap;html=1;fontSize=24;" vertex="1" parent="l5ovCsallBg2o7BBlaVo-31">
          <mxGeometry width="60" height="60" as="geometry" />
        </mxCell>
        <mxCell id="l5ovCsallBg2o7BBlaVo-33" value="" style="endArrow=none;html=1;rounded=0;entryX=1;entryY=0;entryDx=0;entryDy=0;exitX=0;exitY=1;exitDx=0;exitDy=0;" edge="1" parent="l5ovCsallBg2o7BBlaVo-31" source="l5ovCsallBg2o7BBlaVo-32" target="l5ovCsallBg2o7BBlaVo-32">
          <mxGeometry width="50" height="50" relative="1" as="geometry">
            <mxPoint y="60" as="sourcePoint" />
            <mxPoint x="50" y="10" as="targetPoint" />
          </mxGeometry>
        </mxCell>
        <mxCell id="l5ovCsallBg2o7BBlaVo-34" value="" style="group" vertex="1" connectable="0" parent="1">
          <mxGeometry x="1040" y="90" width="60" height="60" as="geometry" />
        </mxCell>
        <mxCell id="l5ovCsallBg2o7BBlaVo-35" value="" style="rounded=0;whiteSpace=wrap;html=1;fontSize=24;" vertex="1" parent="l5ovCsallBg2o7BBlaVo-34">
          <mxGeometry width="60" height="60" as="geometry" />
        </mxCell>
        <mxCell id="l5ovCsallBg2o7BBlaVo-36" value="" style="endArrow=none;html=1;rounded=0;entryX=1;entryY=0;entryDx=0;entryDy=0;exitX=0;exitY=1;exitDx=0;exitDy=0;" edge="1" parent="l5ovCsallBg2o7BBlaVo-34" source="l5ovCsallBg2o7BBlaVo-35" target="l5ovCsallBg2o7BBlaVo-35">
          <mxGeometry width="50" height="50" relative="1" as="geometry">
            <mxPoint y="60" as="sourcePoint" />
            <mxPoint x="50" y="10" as="targetPoint" />
          </mxGeometry>
        </mxCell>
        <mxCell id="MlOCYBxQjXrcOC7JeDMh-25" value="2" style="rounded=0;whiteSpace=wrap;html=1;fontSize=24;strokeColor=#FF0000;strokeWidth=3;" parent="1" vertex="1">
          <mxGeometry x="980" y="165" width="60" height="60" as="geometry" />
        </mxCell>
        <mxCell id="MlOCYBxQjXrcOC7JeDMh-16" value="1" style="rounded=0;whiteSpace=wrap;html=1;fontSize=24;strokeColor=#FF0000;strokeWidth=3;" parent="1" vertex="1">
          <mxGeometry x="650" y="90" width="60" height="60" as="geometry" />
        </mxCell>
        <mxCell id="MlOCYBxQjXrcOC7JeDMh-11" value="1" style="rounded=0;whiteSpace=wrap;html=1;fontSize=24;fillColor=none;strokeColor=#FF0000;strokeWidth=3;" parent="1" vertex="1">
          <mxGeometry x="390" y="165" width="60" height="60" as="geometry" />
        </mxCell>
      </root>
    </mxGraphModel>
  </diagram>
</mxfile>
